<svg xmlns="http://www.w3.org/2000/svg" width="448.126" height="441.137" viewBox="0 0 448.126 441.137"><defs><style>.a,.d{fill:#f7c756;}.a{opacity:0.3;}.b{fill:none;}.c{fill:#a7a7a7;}</style></defs><g transform="translate(-461.051 -122.278)"><path class="a" d="M11.8,64.867C-27.513,231.577,35.322,337.1,142.255,312.41s57.213-118.58,164.855-165.539S51.111-101.844,11.8,64.867Z" transform="matrix(-0.5, 0.866, -0.866, -0.5, 898.175, 280.27)"/><g transform="translate(487.963 280.723)"><path class="b" d="M322.682,202.949a6.056,6.056,0,0,0-5.3,2.932q-1.947,2.932-1.945,9.061T317.378,224a6.311,6.311,0,0,0,10.66,0q1.945-2.931,1.945-9.061t-1.945-9.061A6.1,6.1,0,0,0,322.682,202.949Z" transform="translate(-126.331 -81.281)"/><path class="c" d="M267.4,229.144v-7.835h6.076v-7.035H267.4v-6.982h-8.155v6.982H249.227l16.309-22.439h-9.061L238.887,215.5v5.81H258.98v7.835Z" transform="translate(-95.674 -76.83)"/><path class="c" d="M325.1,193.061a16.035,16.035,0,0,0-16.522,0,15.38,15.38,0,0,0-5.677,6.635,27.211,27.211,0,0,0,0,20.733,15.368,15.368,0,0,0,5.677,6.636,16.034,16.034,0,0,0,16.522,0,15.378,15.378,0,0,0,5.676-6.636,27.21,27.21,0,0,0,0-20.733A15.394,15.394,0,0,0,325.1,193.061ZM322.2,219.124a6.311,6.311,0,0,1-10.66,0q-1.947-2.931-1.945-9.061T311.539,201a6.311,6.311,0,0,1,10.66,0q1.945,2.932,1.945,9.061T322.2,219.124Z" transform="translate(-120.492 -76.403)"/><path class="c" d="M389.022,229.144v-7.835H395.1v-7.035h-6.076v-6.982h-8.154v6.982h-10.02l16.309-22.439H378.1L360.507,215.5v5.81H380.6v7.835Z" transform="translate(-144.383 -76.83)"/><g transform="translate(53.72)"><path class="c" d="M395.178,303H173.506a2.4,2.4,0,0,0,0,4.8H395.178a2.4,2.4,0,1,0,0-4.8Z" transform="translate(-122.249 -121.351)"/><path class="c" d="M362.537,0H100.243A10.647,10.647,0,0,0,89.608,10.636v93.211a2.4,2.4,0,1,0,4.8,0V10.636a5.846,5.846,0,0,1,5.839-5.84H362.537a5.846,5.846,0,0,1,5.839,5.84v105.19a2.4,2.4,0,0,0,4.8,0V10.636A10.647,10.647,0,0,0,362.537,0Z" transform="translate(-89.608)"/></g><circle class="c" cx="4.197" cy="4.197" r="4.197" transform="translate(75.302 16.453)"/><circle class="c" cx="4.197" cy="4.197" r="4.197" transform="translate(90.139 16.453)"/><circle class="c" cx="4.197" cy="4.197" r="4.197" transform="translate(104.977 16.453)"/><path class="d" d="M635.3,202.276a2.4,2.4,0,1,0-4.585-1.4l-.725,2.369a38.346,38.346,0,0,0-5.958-9.869,2.4,2.4,0,1,0-3.7,3.057,32.016,32.016,0,0,1,7.576,20.583c0,.538-.018,1.072-.046,1.6l-2.425-3.971a2.4,2.4,0,0,0-4.093,2.5l4.8,7.861a2.391,2.391,0,0,0,.55.619,32.5,32.5,0,0,1-4.1,8.87l-.409-2.7a2.4,2.4,0,1,0-4.742.717l1.071,7.084a39.177,39.177,0,0,1-16.165,9.989,47.767,47.767,0,0,0,4.181-4.839c.289-.386.56-.775.831-1.163.055,0,.108.013.163.013a2.38,2.38,0,0,0,.817-.144l5.946-2.156a2.4,2.4,0,1,0-1.635-4.508l-1.786.648a27.964,27.964,0,0,0,1.67-19.1,2.4,2.4,0,0,0-4.628,1.261,22.587,22.587,0,0,1,.7,3.8l-2.447-1.632a2.4,2.4,0,1,0-2.661,3.99l4.927,3.285c-2.062,12.9-14.664,21.685-14.821,21.791a2.392,2.392,0,0,0-.633.641c-1.228.105-2.472.164-3.73.164-.7,0-1.387-.019-2.074-.051,4.077-3.138,6.9-7.765,8.811-13.132l6.793-2.9a2.4,2.4,0,1,0-1.881-4.412l-3.207,1.367c2.153-9.522,2.182-20.315,1.614-29.04a2.408,2.408,0,0,0,.373-.356l5.208-6.234a2.4,2.4,0,0,0-3.68-3.075l-2.479,2.966c-.6-5.605-1.295-9.462-1.407-10.061a2.4,2.4,0,0,0-4.715.879c.007.034.158.864.378,2.3l-5-2.692a2.4,2.4,0,1,0-2.275,4.222l7.194,3.878a2.377,2.377,0,0,0,.835.268,150.513,150.513,0,0,1,1.032,19.552l-2.627-2.635a2.4,2.4,0,1,0-3.4,3.386l5.708,5.725c-.648,7.879-2.384,16.242-6.388,22.036L586.4,239.51a2.4,2.4,0,1,0-4.447,1.8l2.523,6.247a15.179,15.179,0,0,1-5.472,2.838,40.676,40.676,0,0,1-11.831-4.976c-3.45-10.118-3.928-18.851-1.438-26.047.035-.006.07,0,.106-.011l5.31-1.117a2.4,2.4,0,0,0-.987-4.693l-1.8.379A30.786,30.786,0,0,1,581.79,202.87a2.444,2.444,0,0,0,.35.23l5.995,3.134a2.4,2.4,0,0,0,2.222-4.25l-2.435-1.272a2.393,2.393,0,0,0-1.564-4.482,39.131,39.131,0,0,0-13.179,5.991l-.122-2.559a2.4,2.4,0,1,0-4.791.228l.295,6.2a30.5,30.5,0,0,0-8.22,14.637l-2.317-2.411a2.4,2.4,0,1,0-3.457,3.323l4.876,5.075a41.557,41.557,0,0,0,.066,5.933h-4.746a31.341,31.341,0,0,1,.381-31.936l6.882-.756a2.4,2.4,0,1,0-.523-4.768l-2.487.273a40.408,40.408,0,0,1,30.23-13.071,42.782,42.782,0,0,1,11.9,1.67,2.4,2.4,0,1,0,1.334-4.607,47.025,47.025,0,0,0-7.55-1.518l4.554-4.291a2.4,2.4,0,1,0-3.289-3.49l-7.92,7.463a46.632,46.632,0,0,0-19.965,4.868l3.315-6.842a2.4,2.4,0,1,0-4.316-2.092L561.222,186.1a2.374,2.374,0,0,0-.234,1,40.943,40.943,0,0,0-9.111,9.813,2.384,2.384,0,0,0-.338.532,36.792,36.792,0,0,0-5.263,13.624l-7.237-8.514a2.4,2.4,0,1,0-3.655,3.105l10.422,12.262a36.388,36.388,0,0,0,5.4,18.125,2.373,2.373,0,0,0,.318.5A41.3,41.3,0,0,0,563.6,248.813a2.4,2.4,0,0,0,.59.381c.35.225.7.449,1.059.665l.011,11.069a2.4,2.4,0,0,0,2.4,2.4h0a2.4,2.4,0,0,0,2.4-2.4l-.008-8.557a47.491,47.491,0,0,0,34,1.7l10.027,2.3a2.4,2.4,0,1,0,1.071-4.674l-3.656-.838a42.941,42.941,0,0,0,11.128-8.63c.142-.155.28-.312.42-.469a37.041,37.041,0,0,0,9.666-24.746,36.306,36.306,0,0,0-.4-5.32,2.384,2.384,0,0,0,.291-.608Z" transform="translate(-214.192 -67.885)"/><path class="d" d="M99.742,246.437,88.783,234.655a37.467,37.467,0,0,0-13.992-26.449,43.311,43.311,0,0,0-6.867-4.625l-.5-11.019a2.4,2.4,0,0,0-4.791.219l.389,8.524a46.958,46.958,0,0,0-19.353-3.177,47.511,47.511,0,0,0-14.72,3.012L18.858,199.3A2.4,2.4,0,0,0,18,204.018l3.644.665a43.438,43.438,0,0,0-8.076,6.264,37.405,37.405,0,0,0-11.558,28.5,36.424,36.424,0,0,0,.635,5.3,2.367,2.367,0,0,0-.266.613l-2.3,8.919a2.4,2.4,0,1,0,4.644,1.2l.619-2.4a38.346,38.346,0,0,0,6.394,9.592,2.4,2.4,0,1,0,3.554-3.219A32.014,32.014,0,0,1,6.8,239.235c-.024-.537-.032-1.073-.028-1.607l2.6,3.861a2.4,2.4,0,0,0,3.977-2.68L8.2,231.169a2.368,2.368,0,0,0-.584-.593,32.315,32.315,0,0,1,3.7-9.081l.537,2.719a2.4,2.4,0,1,0,4.705-.929l-1.39-7.047c.564-.639,1.146-1.269,1.763-1.878A39.228,39.228,0,0,1,30,205.881l.031-.012c.288-.114.574-.235.866-.344a47.8,47.8,0,0,0-3.988,5.052c-.271.4-.523.8-.776,1.2a2.374,2.374,0,0,0-.975.179l-5.843,2.42a2.4,2.4,0,1,0,1.834,4.432l1.755-.727a27.964,27.964,0,0,0-.814,19.156,2.4,2.4,0,0,0,4.567-1.468A22.62,22.62,0,0,1,25.8,232l2.518,1.52a2.4,2.4,0,0,0,2.479-4.106l-5.069-3.061C27.2,213.4,39.346,204.077,39.555,203.92a2.4,2.4,0,0,0,.607-.674c1.225-.159,2.465-.271,3.716-.327.694-.031,1.385-.043,2.074-.041-3.933,3.317-6.545,8.065-8.214,13.512l-6.657,3.2a2.4,2.4,0,1,0,2.076,4.324L36.3,222.4c-1.725,9.609-1.272,20.392-.314,29.084a2.4,2.4,0,0,0-.357.373l-4.925,6.46a2.4,2.4,0,1,0,3.814,2.908l2.344-3.075c.848,5.573,1.717,9.395,1.855,9.988a2.4,2.4,0,0,0,4.671-1.089c-.008-.034-.2-.857-.48-2.279l5.111,2.466a2.4,2.4,0,0,0,2.084-4.319l-7.359-3.552a2.382,2.382,0,0,0-.845-.224,150.5,150.5,0,0,1-1.906-19.493l2.743,2.516a2.4,2.4,0,1,0,3.241-3.535l-5.958-5.464c.295-7.9,1.656-16.333,5.4-22.3l1.845,4.036a2.4,2.4,0,0,0,4.362-1.994l-2.8-6.128a15.18,15.18,0,0,1,5.36-3.087,40.357,40.357,0,0,1,12.012,4.422c3.908,9.964,4.78,18.677,2.611,25.983-.035.007-.07.007-.1.016l-5.256,1.353a2.4,2.4,0,1,0,1.2,4.644l1.782-.459A30.788,30.788,0,0,1,53.508,251.3a2.387,2.387,0,0,0-.36-.215l-6.129-2.862a2.4,2.4,0,0,0-2.029,4.346l2.489,1.162a2.393,2.393,0,0,0,1.763,4.407,39.133,39.133,0,0,0,12.9-6.574l.236,2.551a2.4,2.4,0,0,0,2.385,2.177c.074,0,.149,0,.224-.011a2.4,2.4,0,0,0,2.167-2.609l-.572-6.181A30.494,30.494,0,0,0,74.138,232.5l2.422,2.3a2.4,2.4,0,0,0,3.306-3.475l-5.1-4.852a41.545,41.545,0,0,0-.332-5.924l4.764-.213a31.493,31.493,0,0,1,1.053,31.917l-6.869,1.067a2.4,2.4,0,0,0,.365,4.768,2.44,2.44,0,0,0,.371-.029l2.5-.388a36.777,36.777,0,0,1-2.7,2.972,40.769,40.769,0,0,1-26.947,11.442,42.792,42.792,0,0,1-11.959-1.136,2.4,2.4,0,1,0-1.125,4.662A47,47,0,0,0,41.5,276.8l-4.356,4.488a2.4,2.4,0,0,0,3.441,3.34l7.578-7.809a46.671,46.671,0,0,0,19.715-5.724l-2.993,6.951a2.4,2.4,0,1,0,4.405,1.9L74.8,267.13a2.382,2.382,0,0,0,.192-.979c.786-.67,1.556-1.36,2.294-2.087a37.944,37.944,0,0,0,11.334-22.539L96.23,249.7a2.4,2.4,0,1,0,3.512-3.264Z" transform="translate(0 -76.204)"/></g></g></svg>