<svg xmlns="http://www.w3.org/2000/svg" xmlns:xlink="http://www.w3.org/1999/xlink" width="131.961" height="43.868" viewBox="0 0 131.961 43.868">
  <defs>
    <clipPath id="clip-path">
      <rect id="Rect치ngulo_711" data-name="Rect치ngulo 711" width="131.961" height="43.868" transform="translate(0 0)" fill="none"/>
    </clipPath>
  </defs>
  <g id="Grupo_1147" data-name="Grupo 1147" transform="translate(0 0)">
    <g id="Grupo_1146" data-name="Grupo 1146" clip-path="url(#clip-path)">
      <path id="Trazado_1559" data-name="Trazado 1559" d="M71.114,17.1c-8.7,0-8.771-9.376-8.771-9.376a7.724,7.724,0,1,0-7.723,7.727s8.77.124,8.77,9.376A7.724,7.724,0,1,0,71.114,17.1" fill="#4a4a4a"/>
      <path id="Trazado_1560" data-name="Trazado 1560" d="M77.225,8.132a5.807,5.807,0,1,1-5.807-5.806,5.807,5.807,0,0,1,5.807,5.806" fill="#4a4a4a"/>
      <path id="Trazado_1561" data-name="Trazado 1561" d="M0,25.17c0-4.946,2.858-7.751,6.905-7.751,4.551,0,6.72,2.8,6.72,7.592,0,5.027-2.939,7.539-6.9,7.539C2.486,32.55,0,29.826,0,25.166m10.824-.158c0-2.567-.767-5.371-3.994-5.371-3.176,0-4.021,2.777-4.021,5.4,0,2.858.979,5.265,4.075,5.265,3.144,0,3.942-2.539,3.942-5.29" fill="#4a4a4a"/>
      <path id="Trazado_1562" data-name="Trazado 1562" d="M15.981,30.117l8.013-10H18.915a2.328,2.328,0,0,1-2.328-2.328H27.223V19.8L19.182,29.931h8.149v2.3H15.983V30.117Z" fill="#4a4a4a"/>
      <path id="Trazado_1563" data-name="Trazado 1563" d="M29.685,25.17c0-4.946,2.858-7.751,6.905-7.751,4.551,0,6.72,2.8,6.72,7.592,0,5.027-2.939,7.539-6.905,7.539-4.233,0-6.72-2.724-6.72-7.384M40.5,25.008c0-2.567-.767-5.371-3.994-5.371-3.176,0-4.021,2.777-4.021,5.4,0,2.858.979,5.265,4.075,5.265,3.146,0,3.942-2.539,3.942-5.29" fill="#4a4a4a"/>
      <path id="Trazado_1564" data-name="Trazado 1564" d="M84.21,12.286h0v19.95H81.46v-17.2a2.751,2.751,0,0,1,2.75-2.753" fill="#4a4a4a"/>
      <path id="Trazado_1565" data-name="Trazado 1565" d="M103.7,17.79h2.75v1.588a8.751,8.751,0,0,1,4.947-1.957c4.338,0,4.6,2.858,4.6,5.582v9.233a2.723,2.723,0,0,1-2.724-2.724V23.4c0-2.355-.371-3.572-2.7-3.572a8.689,8.689,0,0,0-4.128,1.506v10.9H103.7Z" fill="#4a4a4a"/>
      <path id="Trazado_1566" data-name="Trazado 1566" d="M46.907,17.79h2.751v1.588A8.742,8.742,0,0,1,54.6,17.421c4.338,0,4.6,2.858,4.6,5.582v9.233a2.723,2.723,0,0,1-2.724-2.724V23.4c0-2.355-.372-3.572-2.7-3.572a8.7,8.7,0,0,0-4.13,1.506v10.9H46.9V17.79Z" fill="#4a4a4a"/>
      <path id="Trazado_1567" data-name="Trazado 1567" d="M119.473,24.984c0-5.027,3.226-7.566,7.143-7.566a8.14,8.14,0,0,1,2.592.318v-2.7a2.751,2.751,0,0,1,2.75-2.751V32.235h-2.75v-1.3a5.108,5.108,0,0,1-3.545,1.535c-2.7,0-6.19-1.139-6.19-7.488m9.737,3.889V20.037a7.814,7.814,0,0,0-2.565-.4c-3.175,0-4.392,2.541-4.392,5.423,0,3.677,1.614,5.105,3.784,5.105a6.624,6.624,0,0,0,3.173-1.3" fill="#4a4a4a"/>
      <path id="Trazado_1568" data-name="Trazado 1568" d="M99.209,21.52c0-2.964-1.9-4.075-5.477-4.075a13.3,13.3,0,0,0-4.973.953,2.237,2.237,0,0,0,2.584,1.616,9.867,9.867,0,0,1,1.781-.187c2.328,0,3.385.423,3.385,2.433v1.613l-3.175.053c-2.514.027-5.741.794-5.741,4.366,0,2.724,1.613,4.152,4.366,4.152a7.634,7.634,0,0,0,4.761-1.8c.2,1.081,1.326,1.585,2.487,1.711V21.52Zm-2.7,7.46a10.386,10.386,0,0,1-3.889,1.27c-1.375,0-2.328-.555-2.328-2.195,0-1.324,1.138-2.223,3.122-2.275l3.1-.132Z" fill="#4a4a4a"/>
      <path id="Trazado_1569" data-name="Trazado 1569" d="M84.266,42.206c0,1.5-.172,1.662-1.4,1.662s-1.4-.154-1.4-1.662.168-1.662,1.4-1.662,1.4.154,1.4,1.662m-2.335,0c0,1.232.065,1.29.932,1.29s.924-.055.924-1.29-.061-1.29-.924-1.29-.932.057-.932,1.29" fill="#4a4a4a"/>
      <path id="Trazado_1570" data-name="Trazado 1570" d="M88.679,40.764a.581.581,0,0,1-.181.495L86.855,43.23c-.13.149-.144.182-.144.247h1.977v.363h-2.56v-.168a.714.714,0,0,1,.243-.58l1.611-1.942c.1-.117.107-.144.107-.215H86.235v-.364h2.447Z" fill="#4a4a4a"/>
      <path id="Trazado_1571" data-name="Trazado 1571" d="M93.354,42.206c0,1.5-.172,1.662-1.4,1.662s-1.4-.154-1.4-1.662.169-1.662,1.4-1.662,1.4.154,1.4,1.662m-2.335,0c0,1.232.065,1.29.932,1.29s.924-.055.924-1.29-.061-1.29-.924-1.29-.932.057-.932,1.29" fill="#4a4a4a"/>
      <path id="Trazado_1572" data-name="Trazado 1572" d="M97.791,43.841c-.513,0-.555-.019-.71-.411l-.952-2.33c-.061-.149-.081-.159-.266-.159v2.9h-.421v-3.27h.424c.509,0,.551.02.7.406l.956,2.334c.061.149.072.158.266.158v-2.9h.421v3.27h-.419Z" fill="#4a4a4a"/>
      <path id="Trazado_1573" data-name="Trazado 1573" d="M103.1,42.206c0,1.5-.172,1.662-1.4,1.662s-1.4-.154-1.4-1.662.169-1.662,1.4-1.662,1.4.154,1.4,1.662m-2.335,0c0,1.232.065,1.29.932,1.29s.924-.055.924-1.29-.061-1.29-.924-1.29-.932.057-.932,1.29" fill="#4a4a4a"/>
      <path id="Trazado_1574" data-name="Trazado 1574" d="M110.927,43.841l-.13-2.12c-.014-.246-.033-.509-.043-.788-.055.243-.136.5-.223.775l-.555,1.685c-.136.421-.169.447-.58.447-.453,0-.48-.023-.612-.447l-.542-1.705c-.078-.256-.149-.5-.21-.761-.01.257-.02.528-.038.765l-.144,2.15h-.42l.235-3.272h.447c.22,0,.272.029.321.2l.781,2.521c.051.172.061.178.178.178s.112-.006.168-.178l.83-2.521c.061-.178.123-.2.308-.2h.438l.238,3.27h-.447Z" fill="#4a4a4a"/>
      <path id="Trazado_1575" data-name="Trazado 1575" d="M113.963,40.938v1.03h1.465v.363h-1.465v1.142h1.643v.364H113.5V40.569h2.058v.364h-1.6Zm.4-.687.369-.771h.463l-.5.771Z" fill="#4a4a4a"/>
      <path id="Trazado_1576" data-name="Trazado 1576" d="M118.858,40.572c1.162,0,1.39.084,1.39,1.625s-.223,1.643-1.39,1.643h-1.251V40.57h1.251Zm-.789,2.9h.8c.8,0,.92-.08.92-1.27,0-1.173-.12-1.251-.92-1.251h-.8Z" fill="#4a4a4a"/>
      <rect id="Rect치ngulo_710" data-name="Rect치ngulo 710" width="0.463" height="3.27" transform="translate(122.337 40.572)" fill="#4a4a4a"/>
      <path id="Trazado_1577" data-name="Trazado 1577" d="M127.268,40.825v.12l-.038.033a4.224,4.224,0,0,0-.855-.061c-.956,0-1.024.055-1.024,1.29s.065,1.29,1.024,1.29a3.889,3.889,0,0,0,.855-.071l.038.028v.127c0,.2-.149.286-1.014.286-1.2,0-1.373-.155-1.373-1.662s.172-1.662,1.391-1.662c.88,0,1,.1,1,.281" fill="#4a4a4a"/>
      <path id="Trazado_1578" data-name="Trazado 1578" d="M131.961,42.206c0,1.5-.172,1.662-1.4,1.662s-1.4-.154-1.4-1.662.168-1.662,1.4-1.662,1.4.154,1.4,1.662m-2.334,0c0,1.232.065,1.29.932,1.29s.924-.055.924-1.29-.061-1.29-.924-1.29-.932.057-.932,1.29" fill="#4a4a4a"/>
    </g>
  </g>
</svg>
