<svg xmlns="http://www.w3.org/2000/svg" width="26.203" height="26.202" viewBox="0 0 26.203 26.202">
  <g id="Grupo_1127" data-name="Grupo 1127" transform="translate(0 -0.001)">
    <g id="Grupo_1140" data-name="Grupo 1140" transform="translate(0 0.001)">
      <path id="Trazado_1552" data-name="Trazado 1552" d="M13.1,0A13.1,13.1,0,1,0,26.2,13.1,13.117,13.117,0,0,0,13.1,0m.73,24.706V22.27a.729.729,0,1,0-1.459,0v2.436A11.641,11.641,0,0,1,1.5,13.916H4.013a.729.729,0,1,0,0-1.459H1.493A11.638,11.638,0,0,1,12.372,1.5V4.1a.729.729,0,1,0,1.459,0V1.5a11.639,11.639,0,0,1,10.88,10.961H22.179a.729.729,0,1,0,0,1.459H24.7a11.64,11.64,0,0,1-10.87,10.789" transform="translate(0 0)" fill="#2d2d2d"/>
      <path id="Trazado_1553" data-name="Trazado 1553" d="M16.077,13.834l-4.008-2.168a3.145,3.145,0,0,0,.408-1.53A3.195,3.195,0,0,0,8.041,7.192l-2.4-3.532a.73.73,0,1,0-1.208.819L6.869,8.065a3.158,3.158,0,0,0-.781,2.07,3.192,3.192,0,0,0,4.991,2.64c.013.009.021.023.036.03l4.268,2.311a.715.715,0,0,0,.347.089.73.73,0,0,0,.347-1.372M9.282,11.871a1.736,1.736,0,1,1,1.736-1.736,1.739,1.739,0,0,1-1.736,1.736" transform="translate(3.822 2.964)" fill="#2d2d2d"/>
    </g>
  </g>
</svg>
