<svg xmlns="http://www.w3.org/2000/svg" width="26.203" height="26.201" viewBox="0 0 26.203 26.201">
  <g id="Grupo_1129" data-name="Grupo 1129" transform="translate(-0.001 -0.001)">
    <g id="Grupo_1139" data-name="Grupo 1139" transform="translate(0.001 0.001)">
      <path id="Trazado_1554" data-name="Trazado 1554" d="M13.1,0A13.1,13.1,0,1,0,26.2,13.1,13.117,13.117,0,0,0,13.1,0m0,24.774A11.673,11.673,0,1,1,24.775,13.1,11.688,11.688,0,0,1,13.1,24.774" fill="#2d2d2d"/>
      <path id="Trazado_1555" data-name="Trazado 1555" d="M9.678,10.249c-2.327-.371-3.254-.558-3.416-1.6C6.083,7.5,7.1,6.725,8.437,6.516a6.471,6.471,0,0,1,3.342.5,6.064,6.064,0,0,1,.719.344.808.808,0,0,0,.818-1.393,9.925,9.925,0,0,0-1.547-.689.588.588,0,0,0-.129-.017A8.278,8.278,0,0,0,9.832,4.93V2.784a.714.714,0,1,0-1.427,0V4.955c-.07.008-.141,0-.209.013-2.379.371-3.97,1.991-3.633,4.162.266,1.709,1.505,2.388,4.522,2.771,1.688.211,3.138.411,3.34,1.705.177,1.13-.771,2.034-2.341,2.28a6.3,6.3,0,0,1-3.06-.352.743.743,0,0,0-.084-.049s-.181-.063-.417-.158c-.158-.067-.318-.133-.48-.211-.122-.057-.244-.118-.354-.183a.808.808,0,0,0-.818,1.393,9.493,9.493,0,0,0,1.378.63,8.348,8.348,0,0,0,2.156.493v2.209a.714.714,0,1,0,1.427,0v-2.2c.162-.013.333-.006.491-.03,2.47-.384,4.145-2.088,3.8-4.282-.352-2.261-2.438-2.6-4.449-2.9" transform="translate(4.038 1.869)" fill="#2d2d2d"/>
    </g>
  </g>
</svg>
