<svg xmlns="http://www.w3.org/2000/svg" width="21.292" height="27.075" viewBox="0 0 21.292 27.075">
  <g id="Grupo_1131" data-name="Grupo 1131" transform="translate(0.001 0)">
    <g id="Grupo_1138" data-name="Grupo 1138" transform="translate(-0.001 0)">
      <path id="Trazado_1556" data-name="Trazado 1556" d="M7.247,3.024A4.2,4.2,0,0,0,2.819,6.937a4.2,4.2,0,0,0,4.428,3.917,4.2,4.2,0,0,0,4.428-3.917A4.2,4.2,0,0,0,7.247,3.024m0,6.374A2.639,2.639,0,0,1,4.465,6.937,2.638,2.638,0,0,1,7.247,4.48,2.638,2.638,0,0,1,10.03,6.937,2.639,2.639,0,0,1,7.247,9.4" transform="translate(3.367 2.845)" fill="#2d2d2d"/>
      <path id="Trazado_1557" data-name="Trazado 1557" d="M10.645,0C4.775,0,0,4.225,0,9.417a8.322,8.322,0,0,0,.632,2.667A24.342,24.342,0,0,0,2.5,15.95l5.736,9.8a2.811,2.811,0,0,0,2.458,1.324H10.7a2.82,2.82,0,0,0,2.464-1.337l5.482-9.512a24.446,24.446,0,0,0,1.709-3.616,11.044,11.044,0,0,0,.937-3.193C21.292,4.225,16.515,0,10.645,0m8.148,12.152a22.878,22.878,0,0,1-1.613,3.414L11.7,25.076a1.129,1.129,0,0,1-1,.543h0a1.127,1.127,0,0,1-1-.536l-5.732-9.8A22.763,22.763,0,0,1,2.2,11.632a6.987,6.987,0,0,1-.551-2.215c0-4.39,4.035-7.961,9-7.961s9,3.571,9,7.961a11.731,11.731,0,0,1-.854,2.735" transform="translate(0 0)" fill="#2d2d2d"/>
    </g>
  </g>
</svg>
